<svg width="74" height="56" viewBox="0 0 74 56" fill="none" xmlns="http://www.w3.org/2000/svg">
<path d="M69.9366 52.6304C71.8166 50.6821 73.003 48.0167 73.003 45.0992C73.003 42.9677 72.3802 40.9622 71.3023 39.2798V30.9763C71.3023 28.2696 70.2046 25.746 68.2437 23.8391C66.3617 22.0444 63.8254 20.9077 61.0605 20.6556L57.7379 20.3325V12.031C57.7379 10.9652 56.9417 10.0827 55.913 9.92704V6.3653C55.913 6.23922 56.2223 6.0836 56.518 6.01465L58.2581 5.50836C58.8257 5.3547 59.141 4.76567 58.9754 4.20423C58.8257 3.64475 58.2443 3.32167 57.6826 3.49109L55.9425 3.98162C54.0171 4.52731 53.7964 5.83143 53.7964 6.3653V9.89946H53.1185C51.9361 9.89946 50.9783 10.8529 50.9783 12.031V19.7139L45.8939 19.2392L41.8342 6.48941H42.3624C44.1202 6.48941 45.5569 5.04739 45.5569 3.27834C45.5569 1.49747 44.1202 0.0534668 42.3624 0.0534668H25.7985C25.2152 0.0534668 24.758 0.528234 24.758 1.11923C24.758 1.6925 25.2152 2.16923 25.7985 2.16923H42.3624C42.9595 2.16923 43.4601 2.65976 43.4601 3.27834C43.4601 3.86736 42.9595 4.37365 42.3624 4.37365H40.3975H9.45737H7.49847C6.86982 4.37365 6.39488 3.88312 6.39488 3.27834C6.39488 2.66173 6.86785 2.16923 7.49847 2.16923H20.7554C21.3526 2.16923 21.8176 1.6925 21.8176 1.11923C21.8176 0.528234 21.3526 0.0534668 20.7554 0.0534668H7.49847C5.71695 0.0534668 4.27045 1.4955 4.27045 3.27834C4.27045 5.04541 5.71498 6.48941 7.49847 6.48941H8.39515V25.1275C6.04015 26.0396 3.85266 27.456 2.01596 29.292C1.35774 29.952 0.995117 30.8345 0.995117 31.7604C0.995117 32.7021 1.35774 33.5708 2.01596 34.2288C2.45543 34.6642 2.96979 34.9715 3.55116 35.1271C2.22881 37.2173 1.47598 39.6837 1.47598 42.3333C1.47598 46.0231 2.96979 49.3741 5.36815 51.8267C5.39376 51.8562 5.43515 51.8976 5.45682 51.9252C5.4923 51.9665 5.51201 51.9961 5.55931 52.0099C8.01481 54.4231 11.3512 55.8947 15.0522 55.8947C18.7591 55.8947 22.0916 54.4231 24.557 52.0099C24.5984 51.9961 24.618 51.9685 24.6555 51.9252C24.6772 51.8976 24.7146 51.8562 24.7363 51.8267C25.5305 51.0151 26.238 50.103 26.7977 49.1219H31.4801H39.5403C40.1216 49.1219 40.5946 48.6452 40.5946 48.0699C40.5946 47.4809 40.1216 47.0042 39.5403 47.0042H32.8931C33.1394 46.1058 33.2971 45.18 33.3996 44.2541H51.4198C51.3981 44.5358 51.3783 44.8155 51.3783 45.0952C51.3783 45.7552 51.4414 46.3856 51.5656 47.0042H44.136C43.5645 47.0042 43.0816 47.4809 43.0816 48.0699C43.0816 48.6452 43.5645 49.1219 44.136 49.1219H52.1607C52.7066 50.4536 53.4831 51.6454 54.4822 52.6403C54.5039 52.6817 54.5236 52.7112 54.5591 52.7388C54.5808 52.7683 54.6142 52.7939 54.6399 52.8235C56.6007 54.7304 59.2671 55.8947 62.2015 55.8947C65.126 55.8947 67.7826 54.7305 69.7198 52.8373C69.7651 52.7959 69.8006 52.7683 69.844 52.7388C69.8853 52.6994 69.9031 52.6718 69.9366 52.6304ZM68.2181 49.642C67.8259 49.2224 67.1421 49.2224 66.7381 49.642C66.3242 50.0498 66.3242 50.7077 66.7381 51.1293L67.5441 51.9429C66.34 52.8944 64.86 53.5425 63.2401 53.7238V52.5733C63.2401 51.9981 62.7829 51.5213 62.1996 51.5213C61.6241 51.5213 61.1373 51.9981 61.1373 52.5733V53.7238C59.5214 53.5406 58.065 52.8944 56.8412 51.9429L57.661 51.1293C58.065 50.7077 58.065 50.0498 57.661 49.642C57.2432 49.2224 56.585 49.2224 56.1593 49.642L55.3395 50.4556C54.3975 49.2362 53.761 47.7626 53.558 46.1492H54.7227C55.2981 46.1492 55.777 45.6882 55.777 45.0972C55.777 44.5239 55.2981 44.0472 54.7227 44.0472H53.558C53.7629 42.4338 54.3995 40.9622 55.3395 39.7408L56.1593 40.5682C56.3603 40.7652 56.6401 40.8755 56.9003 40.8755C57.1801 40.8755 57.4344 40.7632 57.661 40.5682C58.065 40.1466 58.065 39.4729 57.661 39.0671L56.8412 38.2535C58.065 37.302 59.5194 36.6538 61.1373 36.4726V37.6231C61.1373 38.2121 61.6241 38.6751 62.1996 38.6751C62.7829 38.6751 63.2401 38.2121 63.2401 37.6231V36.4726C64.858 36.6558 66.338 37.302 67.5441 38.2535L66.7381 39.0671C66.3242 39.4729 66.3242 40.1466 66.7381 40.5544C66.943 40.7632 67.2012 40.8755 67.4791 40.8755C67.7392 40.8755 68.0191 40.7632 68.2181 40.5682L69.0399 39.7408C69.9996 40.9602 70.6263 42.4318 70.8214 44.0472H69.6843C69.1029 44.0472 68.6221 44.5239 68.6221 45.0972C68.6221 45.6882 69.1029 46.1492 69.6843 46.1492H70.8214C70.6244 47.7606 69.9996 49.2342 69.0399 50.4556L68.2181 49.642ZM69.1167 29.9244H63.0982C61.0427 29.9244 59.3755 28.2558 59.3755 26.209V22.6177L60.8555 22.7438C65.2837 23.1516 68.6024 26.1105 69.1167 29.9244ZM53.0988 12.031C53.0988 12.0172 53.0988 12.0172 53.1204 12.0172H55.5996C55.6213 12.0172 55.6213 12.0172 55.6213 12.031V20.1355L53.1008 19.9129V12.031H53.0988ZM22.4601 6.49139H39.6171L43.6532 19.1702H41.5011C40.6163 19.1702 39.8201 19.4933 39.1915 20.0134L36.3201 18.2463L37.1616 16.887C37.4553 16.4103 37.3193 15.7523 36.8187 15.443C36.3201 15.1495 35.66 15.2893 35.3604 15.7937L32.5994 20.2813C32.2782 20.7718 32.4359 21.4318 32.9404 21.7253C33.098 21.8376 33.299 21.8789 33.4764 21.8789C33.839 21.8789 34.1799 21.6957 34.3731 21.3884L35.2165 20.041L38.0603 21.7942C37.9795 22.0878 37.9361 22.4108 37.9361 22.7359V28.9906H28.3959V14.7555C28.3959 12.5392 26.5927 10.7308 24.3737 10.7308C23.6781 10.7308 23.0297 10.914 22.4582 11.2213V6.49139H22.4601ZM44.0454 21.2742V27.3457C44.0454 28.242 43.3043 28.9867 42.3998 28.9867H40.0586V22.732C40.0586 21.9184 40.6951 21.2742 41.5031 21.2742H44.0454ZM22.4601 14.7515C22.4601 13.6996 23.3134 12.8446 24.3756 12.8446C25.4379 12.8446 26.2951 13.6996 26.2951 14.7515V27.7239C25.1028 26.798 23.818 26.0415 22.4621 25.4387V14.7515H22.4601ZM10.5018 6.49139H20.3554V24.6684C18.6586 24.1622 16.8771 23.8962 15.0542 23.8962C13.4973 23.8962 11.9818 24.0932 10.5018 24.4715V6.49139ZM15.0542 33.7954C15.6375 33.7954 16.1164 33.3187 16.1164 32.7296V30.9212C18.4734 31.1438 20.6333 32.0854 22.3734 33.5294L21.0944 34.804C20.6806 35.2098 20.6806 35.8836 21.0944 36.2914C21.2994 36.5002 21.5792 36.5987 21.8413 36.5987C22.1153 36.5987 22.3754 36.5002 22.5961 36.2914L23.883 35.0148C25.3196 36.7405 26.2616 38.9134 26.4745 41.2853H24.6575C24.082 41.2853 23.6011 41.7463 23.6011 42.3353C23.6011 42.9105 24.082 43.3873 24.6575 43.3873H26.4745C26.2616 45.7572 25.3196 47.9182 23.883 49.6577L22.5744 48.3812C22.1822 47.9616 21.5201 47.9616 21.0944 48.3812C20.6806 48.789 20.6806 49.4627 21.0944 49.8685L22.3734 51.1431C20.6333 52.5871 18.4734 53.5268 16.1164 53.7514V51.9272C16.1164 51.3539 15.6375 50.8772 15.0542 50.8772C14.4787 50.8772 13.9979 51.3539 13.9979 51.9272V53.7514C11.635 53.5268 9.47512 52.5871 7.73498 51.1431L9.01394 49.8685C9.43765 49.4627 9.43765 48.789 9.01394 48.3812C8.59615 47.9616 7.934 47.9616 7.52015 48.3812L6.23328 49.6577C4.79663 47.9182 3.85463 45.7591 3.63391 43.3873H5.45881C6.04214 43.3873 6.5151 42.9105 6.5151 42.3353C6.5151 41.7463 6.04214 41.2853 5.45881 41.2853H3.63391C3.85463 38.9154 4.7986 36.7405 6.23328 35.0148L7.52015 36.2914C7.73299 36.5002 7.99313 36.5987 8.27297 36.5987C8.52917 36.5987 8.80899 36.5002 9.01394 36.2914C9.43765 35.8836 9.43765 35.2098 9.01394 34.804L7.73498 33.5294C9.47512 32.0854 11.635 31.1438 13.9979 30.9212V32.7296C13.9979 33.3187 14.4787 33.7954 15.0542 33.7954ZM27.8008 47.0061C28.3407 45.5483 28.6364 43.9763 28.6364 42.3353C28.6364 38.6337 27.1347 35.2827 24.7363 32.8281C24.7146 32.8006 24.6772 32.773 24.6555 32.7296C24.618 32.7021 24.6003 32.6745 24.557 32.6607C22.1113 30.2474 18.7591 28.7621 15.0522 28.7621C11.3512 28.7621 7.99313 30.2494 5.55931 32.6607C5.51398 32.6745 5.4923 32.7021 5.45682 32.7296C5.19669 32.9976 4.85379 33.1512 4.47147 33.1512C4.1128 33.1374 3.77582 32.9976 3.51766 32.7296C3.25752 32.4775 3.09393 32.1406 3.09393 31.7624C3.09393 31.3979 3.25752 31.0473 3.51766 30.7951C6.59394 27.7101 10.695 26.012 15.0542 26.012C19.4134 26.012 23.5164 27.7081 26.5947 30.7951C29.6769 33.8801 26.5947 30.7951 26.5947 30.7951C29.9212 34.1067 31.5786 38.5234 31.3796 43.0248C31.3796 43.0799 31.3579 43.1371 31.3579 43.1922C31.3579 43.2218 31.3579 43.2474 31.3796 43.2769C31.3027 44.5259 31.0781 45.7729 30.6997 47.0081H27.8008V47.0061ZM33.4981 42.1383C33.4764 40.8755 33.3325 39.6147 33.0586 38.3677C32.4773 35.7161 31.3224 33.2359 29.6769 31.1024H42.3978C44.4612 31.1024 46.1599 29.4063 46.1599 27.3437V21.3707L57.2787 22.4207V26.209C57.2787 29.4201 59.882 32.0283 63.0982 32.0283H69.1837V36.8666C67.2997 35.267 64.86 34.2997 62.1996 34.2997C59.2396 34.2997 56.5613 35.4896 54.6005 37.4123C54.5788 37.4261 54.5591 37.4399 54.5591 37.4537C54.5453 37.4675 54.5236 37.4812 54.5236 37.5088C53.2564 38.7834 52.3026 40.3692 51.8021 42.1363H33.4981V42.1383Z" fill="white"/>
</svg>
