<svg width="82" height="56" viewBox="0 0 82 56" fill="none" xmlns="http://www.w3.org/2000/svg">
<path d="M77.6296 48.8621C77.8523 48.3774 77.9903 47.8456 77.9903 47.2683V34.1482C77.9903 32.1349 76.3427 30.4821 74.3148 30.4821H69.932C67.9041 30.4821 66.2566 32.1349 66.2566 34.1482V44.7881H54.6866V44.008H56.3341C58.1806 44.008 59.6902 42.5108 59.6902 40.6551V38.7816C59.6902 37.8164 59.2882 36.9259 58.6241 36.3172C59.2882 35.5686 59.6902 34.5698 59.6902 33.4922V24.909C59.6902 23.1931 59.1778 21.5856 58.3167 20.2441H58.8901C60.4233 20.2441 61.655 18.9971 61.655 17.4841V14.7064C61.655 13.1915 60.4233 11.9465 58.8901 11.9465H54.8245C54.2865 11.9465 53.7525 12.0548 53.2638 12.242L52.17 6.40688C52.842 5.98531 53.2795 5.23474 53.2795 4.3778C53.2795 2.00594 51.3502 0.0576172 48.9656 0.0576172H46.0726C45.4262 0.0576172 44.9138 0.587546 44.9138 1.24355C44.9138 1.8838 45.4262 2.41373 46.0726 2.41373H48.9656C50.0613 2.41373 50.9481 3.30416 50.9481 4.37977C50.9481 4.41129 50.9067 4.44281 50.8772 4.44281H11.7112C11.6955 4.44281 11.6699 4.40932 11.6699 4.37977C11.6699 3.30416 12.5587 2.41373 13.6524 2.41373H41.1123C41.7607 2.41373 42.2967 1.8838 42.2967 1.24355C42.2967 0.587546 41.7626 0.0576172 41.1123 0.0576172H13.6524C11.2482 0.0576172 9.31485 2.00594 9.31485 4.3778C9.31485 5.23671 9.75633 5.98531 10.4244 6.40688L9.32868 12.242C8.83995 12.0529 8.3039 11.9465 7.77181 11.9465H3.70625C2.19471 11.9465 0.947205 13.1935 0.947205 14.7064V17.4841C0.947205 18.999 2.19668 20.2441 3.70625 20.2441H4.28758C3.41849 21.5876 2.90613 23.1931 2.90613 24.909V33.4903C2.90613 34.5678 3.30422 35.5666 3.96835 36.3152C3.32786 36.924 2.90613 37.8144 2.90613 38.7797V40.6531C2.90613 42.5089 4.41767 44.0061 6.26226 44.0061H6.97168V48.1568C6.97168 48.405 6.99537 48.6237 7.06238 48.8581H4.46301C2.52186 48.8581 0.947205 50.4341 0.947205 52.3844C0.947205 54.317 2.52186 55.8929 4.46301 55.8929H61.0756C61.724 55.8929 62.26 55.363 62.26 54.7228C62.26 54.0845 61.726 53.5526 61.0756 53.5526H4.46301C3.81661 53.5526 3.28057 53.0207 3.28057 52.3824C3.28057 51.7264 3.81464 51.1945 4.46301 51.1945H77.5469C78.1854 51.1945 78.7214 51.7264 78.7214 52.3824C78.7214 53.0207 78.1873 53.5526 77.5469 53.5526H66.0793C65.4388 53.5526 64.9027 54.0845 64.9027 54.7228C64.9027 55.363 65.4368 55.8929 66.0793 55.8929H77.5469C79.4801 55.8929 81.0626 54.317 81.0626 52.3844C81.0586 50.4676 79.5235 48.9074 77.6296 48.8621ZM68.588 47.1285H70.4345C72.021 47.1285 73.2881 45.85 73.2881 44.274V43.2752H75.647V47.2683C75.647 48.0032 75.046 48.5961 74.3129 48.5961H69.9301C69.1891 48.5961 68.586 48.0032 68.586 47.2683V47.1285H68.588ZM68.588 38.5787H75.647V40.9348H68.588V38.5787ZM69.932 32.8362H74.3148C75.048 32.8362 75.649 33.4312 75.649 34.1482V36.2384H68.5899V34.1482C68.588 33.4312 69.191 32.8362 69.932 32.8362ZM68.588 43.2752H70.9528V44.274C70.9528 44.5557 70.7321 44.7901 70.4325 44.7901H68.586V43.2752H68.588ZM66.2566 47.1285V47.2683C66.2566 47.8456 66.3847 48.3774 66.6153 48.8621H54.5979C54.6629 48.6276 54.6866 48.409 54.6866 48.1608V47.1305H66.2566V47.1285ZM36.2348 35.411H26.3733V28.0452C26.3733 27.8896 26.5094 27.7497 26.6926 27.7497H35.9234C36.0831 27.7497 36.2348 27.8896 36.2348 28.0452V35.411ZM35.9215 25.3936H26.6907C25.2205 25.3936 24.0223 26.5933 24.0223 28.0452V35.411H7.16287C6.10263 35.411 5.23354 34.5501 5.23354 33.4903V24.909C5.23354 21.4773 8.03981 18.6838 11.4649 18.6681L13.8731 21.8516C14.5826 22.8011 15.7118 23.3645 16.8922 23.3645H45.6942C46.8905 23.3645 48.0275 22.8031 48.737 21.8516L51.1176 18.6681C54.5466 18.6838 57.3529 21.4773 57.3529 24.909V33.4903C57.3529 34.5501 56.4838 35.411 55.4315 35.411H38.5701V28.0452C38.574 26.5953 37.3699 25.3936 35.9215 25.3936ZM48.1891 18.6681L46.855 20.447C46.581 20.8055 46.1593 21.0242 45.6962 21.0242H16.8942C16.4528 21.0242 16.0055 20.8055 15.7434 20.447L14.4013 18.6681H48.1891ZM36.6546 16.3297C37.1532 14.8621 38.5267 13.818 40.1585 13.818C41.7764 13.818 43.1619 14.8621 43.6467 16.3297H36.6546ZM54.8226 14.3006H58.8881C59.1384 14.3006 59.3138 14.474 59.3138 14.7064V17.4841C59.3138 17.7008 59.1384 17.8899 58.8881 17.8899H56.0444C55.4591 17.4841 54.8225 17.1394 54.1505 16.8754L53.7249 14.6434C54.0402 14.409 54.4205 14.3006 54.8226 14.3006ZM49.8603 6.79498L51.3028 14.4247V14.4563L51.6595 16.3455C51.4841 16.3297 51.3029 16.3297 51.1216 16.3297H46.0706C45.5129 13.5678 43.0673 11.4757 40.1605 11.4757C37.2182 11.4757 34.7627 13.5678 34.2286 16.3297H11.4905C11.2915 16.3297 11.1082 16.3297 10.9328 16.3455L11.2934 14.4563C11.2934 14.4405 11.3093 14.4247 11.3093 14.4247L12.7419 6.79498H49.8603ZM3.2766 17.4841V14.7064C3.2766 14.474 3.47565 14.3006 3.70228 14.3006H7.76784C8.17183 14.3006 8.55027 14.4109 8.86361 14.6454L8.43793 16.8774C7.76789 17.1413 7.12736 17.4861 6.55388 17.8919H3.70228C3.47368 17.8899 3.2766 17.7008 3.2766 17.4841ZM5.23552 40.6551V38.7816C5.23552 38.2202 5.69861 37.7671 6.25829 37.7671H56.3341C56.8839 37.7671 57.3569 38.2182 57.3569 38.7816V40.6551C57.3569 41.2166 56.8859 41.6696 56.3341 41.6696H26.0915C25.4451 41.6696 24.9091 42.2015 24.9091 42.8398C24.9091 43.4958 25.4432 44.01 26.0915 44.01H42.6396V48.1608C42.6396 48.409 42.6672 48.6276 42.7303 48.8621H18.9221C18.9851 48.6276 19.0088 48.409 19.0088 48.1608V44.01H20.9914C21.6397 44.01 22.1698 43.4958 22.1698 42.8398C22.1698 42.2015 21.6397 41.6696 20.9914 41.6696H6.2563C5.69859 41.6677 5.23552 41.2166 5.23552 40.6551ZM10.0204 48.8621C9.6144 48.8621 9.31094 48.5488 9.31094 48.1608V44.01H16.6696V48.1608C16.6696 48.5488 16.3405 48.8621 15.9601 48.8621H10.0204ZM45.6962 48.8621C45.2941 48.8621 44.9749 48.5488 44.9749 48.1608V44.01H52.3454V48.1608C52.3454 48.5488 52.0321 48.8621 51.632 48.8621H45.6962Z" fill="white"/>
</svg>
