<svg width="56" height="56" viewBox="0 0 56 56" fill="none" xmlns="http://www.w3.org/2000/svg">
<path d="M53.2902 33.9293H51.5973V13.9655C51.5973 13.6404 51.4161 13.3567 51.1362 13.2267C50.8584 13.0849 50.5174 13.1282 50.2671 13.3252L37.2506 23.9553V13.9674C37.2506 13.6424 37.0772 13.3587 36.7816 13.2287C36.5037 13.0869 36.1627 13.1302 35.9125 13.337L22.8525 24.0636L22.4939 19.9857C23.3748 19.8222 24.0606 19.048 24.0606 18.1143V16.2546C24.0606 15.1987 23.1915 14.3496 22.1549 14.3496H19.8708C19.4136 14.3496 19.0491 14.7101 19.0491 15.1672C19.0491 15.6222 19.4136 15.9827 19.8708 15.9827H22.1549C22.2909 15.9827 22.417 16.1029 22.417 16.2546V18.1143C22.417 18.2561 22.2909 18.3861 22.1549 18.3861H4.02438C3.88249 18.3861 3.76228 18.2581 3.76228 18.1143V16.2546C3.76228 16.1029 3.88249 15.9827 4.02438 15.9827H16.5936C17.0508 15.9827 17.4173 15.6222 17.4173 15.1672C17.4173 14.7101 17.0508 14.3496 16.5936 14.3496H13.9706V11.0755C14.4652 11.1523 15.1195 11.2173 15.8309 11.2173C17.2892 11.2173 18.9978 10.9435 20.3497 9.89942C23.156 7.72455 23.0496 3.166 23.0496 2.969C23.0378 2.60849 22.7875 2.29329 22.4486 2.20661C22.2515 2.15343 17.7898 0.98917 14.9618 3.15222C14.1735 3.77079 13.6119 4.57848 13.2158 5.42558C12.731 4.05644 11.9486 2.65183 10.6696 1.66093C7.22483 -1.00446 1.71861 0.431658 1.48803 0.508487C1.13922 0.595167 0.888957 0.900517 0.879104 1.27087C0.879104 1.49939 0.737202 7.11385 4.18201 9.79894C5.82361 11.0617 7.92047 11.4005 9.70593 11.4005C10.7445 11.4005 11.6589 11.2902 12.3289 11.172V14.3476H4.02636C2.98188 14.3476 2.12066 15.1967 2.12066 16.2526V18.1123C2.12066 19.048 2.80058 19.8203 3.6874 19.9838L0.804228 52.6324C0.721458 53.4716 0.999325 54.3088 1.57674 54.9274C2.13248 55.5479 2.93656 55.8966 3.78002 55.8966H53.2961C54.3504 55.8966 55.2215 55.0476 55.2215 53.9917V35.8894C55.2156 34.8217 54.3307 33.9293 53.2902 33.9293ZM15.9689 4.45831C17.6184 3.1857 20.2079 3.44574 21.3883 3.65259C21.3233 4.82867 20.9646 7.3404 19.3368 8.61499C17.7208 9.86593 15.1589 9.62756 13.9666 9.42071V8.88684C14.1085 7.58862 14.546 5.54378 15.9689 4.45831ZM5.1851 8.50467C2.99761 6.79669 2.59559 3.35906 2.53449 1.94264C3.94355 1.6826 7.44751 1.24526 9.65667 2.95521C11.6707 4.52332 12.1713 7.55907 12.2954 9.13703C12.2797 9.26508 12.2797 9.40889 12.2797 9.51527C10.8332 9.7891 7.37259 10.191 5.1851 8.50467ZM35.6169 15.6971V18.2305L23.2348 28.4567L23.0339 26.0415L35.6169 15.6971ZM20.8464 20.0153L21.2819 24.8674H4.89149L5.32704 20.0153H20.8464ZM4.74956 26.4985H21.4179L21.6859 29.3944H4.48945L4.74956 26.4985ZM47.5022 46.3107H31.502V43.9723H47.5022V46.3107ZM31.502 47.9536H47.5022V50.294H31.502V47.9536ZM47.5022 42.3392H31.502V40.249C31.502 40.0973 31.6262 39.9772 31.7838 39.9772H47.2302C47.38 39.9772 47.5042 40.0973 47.5042 40.249V42.3392H47.5022ZM31.502 51.9232H47.5022V54.2537H31.502V51.9232ZM53.572 53.9917C53.572 54.1433 53.4419 54.2635 53.2902 54.2635H49.1339V40.251C49.1339 39.1971 48.2787 38.348 47.2283 38.348H31.7818C30.7275 38.348 29.8683 39.1971 29.8683 40.251V54.2635H25.0617C25.312 53.7631 25.4165 53.1978 25.3731 52.6324L24.569 43.3971C24.5237 42.9499 24.1217 42.615 23.6684 42.6564C23.2171 42.6898 22.89 43.0917 22.9255 43.5369L23.7453 52.7841C23.7729 53.1643 23.6527 53.5346 23.3906 53.8163C23.1403 54.1098 22.7816 54.2635 22.3894 54.2635H3.77407C3.39963 54.2635 3.02913 54.1118 2.77885 53.8163C2.51871 53.5326 2.39265 53.1643 2.43009 52.7841L4.34559 31.0256H21.8199L22.6417 40.2608C22.6771 40.6962 23.0339 41.0114 23.4536 41.0114C23.4852 41.0114 23.495 41.0114 23.5344 41.0114C23.9778 40.97 24.2971 40.5642 24.2734 40.121L23.8734 35.5624H30.3353C30.7925 35.5624 31.1473 35.1921 31.1473 34.735C31.1473 34.2878 30.7925 33.9313 30.3353 33.9313H23.7157L23.4201 30.4385L35.6169 20.3541V30.4838C35.6169 30.799 35.8021 31.0827 36.0819 31.2245C36.1943 31.2777 36.3125 31.2994 36.4445 31.2994C36.6298 31.2994 36.8151 31.2344 36.9491 31.1142L44.3235 25.0427C44.6624 24.759 44.7275 24.2508 44.4319 23.8903C44.1402 23.5534 43.6278 23.4982 43.2888 23.7799L37.2506 28.7522V26.0651L49.9715 15.6853V18.2738L45.8606 21.6583C45.5217 21.9419 45.4684 22.4522 45.7483 22.8107C45.9256 23.0077 46.1523 23.1042 46.3907 23.1042C46.576 23.1042 46.7612 23.0392 46.9031 22.9191L49.9715 20.3955V33.9293H33.6166C33.1692 33.9293 32.7928 34.2878 32.7928 34.7331C32.7928 35.1901 33.1692 35.5605 33.6166 35.5605H53.2922C53.4341 35.5605 53.574 35.724 53.574 35.8875V53.9917H53.572Z" fill="white"/>
</svg>
