<svg width="74" height="65" viewBox="0 0 74 65" fill="none" xmlns="http://www.w3.org/2000/svg">
<path d="M72.0301 21.3207C73.0328 21.3207 73.8196 20.5229 73.8196 19.5229V17.3835C73.8196 16.3992 73.0305 15.6015 72.0301 15.6015H54.3198C53.3172 15.6015 52.5214 16.3992 52.5214 17.3835V19.1678H51.2243C50.2508 19.1678 49.4348 19.9791 49.4348 20.9634V26.3276H42.4366V25.5298C42.4366 23.7612 40.9955 22.3207 39.2016 22.3207H36.7017V19.2555H46.3662C47.3441 19.2555 48.1534 18.4577 48.1534 17.4712V12.4801C48.1534 11.8958 47.6656 11.4104 47.0743 11.4104C46.4808 11.4104 45.993 11.8958 45.993 12.4801V17.1004H20.9765V2.6551H45.9908V7.48893C45.9908 8.07321 46.4786 8.55862 47.0721 8.55862C47.6633 8.55862 48.1511 8.07321 48.1511 7.48893V2.29555C48.1511 1.30002 47.3418 0.5 46.3639 0.5H20.6078C19.6366 0.5 18.8206 1.29777 18.8206 2.29555V17.4689C18.8206 18.4532 19.6366 19.2532 20.6078 19.2532H30.2722V22.3185H27.7656C25.9987 22.3185 24.5599 23.759 24.5599 25.5275V26.3253H16.6422C17.1345 25.4691 17.3953 24.4983 17.3953 23.4578V18.4532C17.3953 17.4689 16.6062 16.6689 15.6081 16.6689H6.88557H5.17705C3.40108 16.6689 1.9578 18.1116 1.9578 19.8937V21.3207C1.9578 23.0893 3.40108 24.5298 5.17705 24.5298H5.93015C6.05605 25.1702 6.27185 25.7702 6.57309 26.3276H2.38943C1.39354 26.3276 0.599976 27.1231 0.599976 28.1096V30.449C0.599976 31.4176 1.39579 32.2311 2.38943 32.2311H2.87727V62.4205C2.87727 63.4048 3.68657 64.2026 4.66673 64.2026H7.52628C8.50644 64.2026 9.31574 63.4048 9.31574 62.4205V46.1909H15.8891C16.4803 46.1909 16.9682 45.7055 16.9682 45.1212C16.9682 44.5212 16.4803 44.0516 15.8891 44.0516H9.31574V32.2288H40.3571V39.029V44.0493H20.8911C20.3066 44.0493 19.8322 44.519 19.8322 45.119C19.8322 45.7033 20.3066 46.1887 20.8911 46.1887H40.3571V56.7709C40.3571 57.7552 41.1529 58.553 42.1466 58.553H65.0904V62.4183C65.0904 63.4026 65.9064 64.2003 66.8776 64.2003H69.7483C70.7308 64.2003 71.5378 63.4026 71.5378 62.4183V40.9279C71.5378 40.3414 71.05 39.856 70.4632 39.856C69.872 39.856 69.3841 40.3414 69.3841 40.9279V62.061H67.2508V32.2288H69.3841V35.9233C69.3841 36.5233 69.872 37.0065 70.4632 37.0065C71.0477 37.0065 71.5378 36.521 71.5378 35.9233V32.2288H72.0256C73.0283 32.2288 73.8151 31.4153 73.8151 30.4468V28.1074C73.8151 27.1231 73.026 26.3253 72.0256 26.3253H70.7285V21.3185H72.0301V21.3207ZM5.82673 22.3881H5.17705C4.58581 22.3881 4.09797 21.9027 4.09797 21.3185V19.8915C4.09797 19.2914 4.58581 18.8083 5.17705 18.8083H5.82673V22.3881ZM51.5929 21.3207H53.6027H68.5996V22.7477H51.5952V21.3207H51.5929ZM51.5929 24.8848H68.5973V26.3276H51.5929V24.8848ZM32.4079 19.2532H34.5616V22.3185H32.4079V19.2532ZM26.6933 25.5275C26.6933 24.941 27.1856 24.4556 27.7679 24.4556H39.2016C39.8153 24.4556 40.2829 24.941 40.2829 25.5275V26.3253H26.6956V25.5275H26.6933ZM7.96016 18.8105H15.2641V23.4578C15.2641 24.6152 14.7179 25.6556 13.8613 26.3253H9.34721C8.50868 25.6534 7.96016 24.6129 7.96016 23.4578V18.8105ZM7.16434 62.0632H5.03092V32.2288H7.16434V62.0632ZM65.0926 56.4136H42.4928V47.9865H65.0926V56.4136ZM65.0926 45.8471H42.4928V40.1009H65.0926V45.8471ZM65.0926 37.9615H42.4928V32.2288H65.0926V37.9615ZM71.6862 30.0894H2.73114V28.4624H71.6862V30.0894ZM69.6719 19.1678H54.6615V17.7408H71.6862V19.1678H69.6719Z" fill="white"/>
</svg>
